<svg width="375" height="440" viewBox="0 0 375 440" fill="none" xmlns="http://www.w3.org/2000/svg">
<path d="M334.938 144.312C292.57 68.6799 205.617 29.1881 121.35 49.249C76.7998 59.8546 34.204 86.9989 14.0898 147.436C-21.8665 255.475 59.4123 301.697 112.304 319.837C137.865 328.63 162.075 340.951 184.233 356.444C224.136 384.283 294.339 413.353 344.936 324.774C381.609 260.572 363.159 194.691 334.938 144.312Z" fill="url(#paint0_linear)"/>
<path d="M403 311.202C403 325.266 336.859 350.219 255.269 350.219C173.68 350.219 115.283 299.651 115.283 285.587C115.283 271.523 173.68 299.288 255.269 299.288C336.859 299.288 403 297.137 403 311.202Z" fill="#1F53E4"/>
<path opacity="0.1" d="M403 311.202C403 325.266 336.859 350.219 255.269 350.219C173.68 350.219 115.283 299.651 115.283 285.587C115.283 271.523 173.68 299.288 255.269 299.288C336.859 299.288 403 297.137 403 311.202Z" fill="#0001FC"/>
<path d="M403 311.053C403 325.117 336.859 336.518 255.269 336.518C173.68 336.518 115.283 299.651 115.283 285.587C115.283 271.523 173.68 285.587 255.269 285.587C336.859 285.587 403 296.988 403 311.053Z" fill="url(#paint1_linear)"/>
<path d="M232.69 271.419L229.698 290.52C229.698 290.52 214.97 298.345 225.326 298.575C235.682 298.805 284.47 298.575 284.47 298.575C284.47 298.575 293.906 298.575 278.947 290.29L275.955 270.268L232.69 271.419Z" fill="url(#paint2_linear)"/>
<path opacity="0.1" d="M223.242 298.368C225.594 296.275 229.698 294.094 229.698 294.094L232.69 274.993L275.955 275.034L278.947 293.864C282.435 295.796 284.596 297.277 285.86 298.413C287.782 297.975 289.881 296.346 278.947 290.29L275.955 270.268L232.69 271.419L229.698 290.52C229.698 290.52 217.322 297.096 223.242 298.368Z" fill="black"/>
<path d="M344.701 138.286H163.484C159.699 138.286 156.631 141.355 156.631 145.14V267.212C156.631 270.997 159.699 274.065 163.484 274.065H344.701C348.486 274.065 351.554 270.997 351.554 267.212V145.14C351.554 141.355 348.486 138.286 344.701 138.286Z" fill="#0A1034"/>
<path d="M344.995 145.536H163.189V247.255H344.995V145.536Z" fill="black"/>
<path d="M254.092 143.464C254.728 143.464 255.243 142.949 255.243 142.314C255.243 141.678 254.728 141.163 254.092 141.163C253.457 141.163 252.942 141.678 252.942 142.314C252.942 142.949 253.457 143.464 254.092 143.464Z" fill="black"/>
<path d="M351.554 255.31V267.212C351.554 268.112 351.377 269.003 351.033 269.835C350.688 270.666 350.184 271.422 349.547 272.058C348.911 272.695 348.155 273.2 347.324 273.544C346.492 273.888 345.601 274.066 344.701 274.066H163.484C162.584 274.066 161.693 273.888 160.861 273.544C160.03 273.2 159.274 272.695 158.638 272.058C158.001 271.422 157.496 270.666 157.152 269.835C156.808 269.003 156.63 268.112 156.631 267.212V255.31H351.554Z" fill="url(#paint3_linear)"/>
<path d="M304.952 311.002V313.303H181.14V311.462L181.31 311.002L184.362 302.717H302.421L304.952 311.002Z" fill="#D7D8E9"/>
<path d="M352.599 308.749C352.374 309.713 351.522 310.73 349.598 311.692C342.694 315.144 328.656 310.772 328.656 310.772C328.656 310.772 317.84 308.931 317.84 304.098C318.143 303.89 318.46 303.702 318.788 303.534C321.69 301.998 331.315 298.209 348.379 303.695C349.637 304.089 350.76 304.825 351.623 305.82C352.315 306.63 352.857 307.657 352.599 308.749Z" fill="#D7D8E9"/>
<path opacity="0.1" d="M352.599 308.749C344.149 311.987 336.616 312.229 328.886 306.86C324.988 304.153 321.446 303.484 318.788 303.534C321.69 301.999 331.315 298.209 348.379 303.695C349.637 304.089 350.76 304.825 351.623 305.82C352.315 306.63 352.857 307.657 352.599 308.749Z" fill="black"/>
<path d="M342.004 306.86C343.656 306.86 344.995 306.447 344.995 305.939C344.995 305.431 343.656 305.018 342.004 305.018C340.351 305.018 339.012 305.431 339.012 305.939C339.012 306.447 340.351 306.86 342.004 306.86Z" fill="white"/>
<path d="M254.092 269.118C256.507 269.118 258.465 267.16 258.465 264.745C258.465 262.33 256.507 260.373 254.092 260.373C251.678 260.373 249.72 262.33 249.72 264.745C249.72 267.16 251.678 269.118 254.092 269.118Z" fill="#0A1034"/>
<path opacity="0.1" d="M304.952 311.002V313.303H181.14V311.462L181.31 311.002H304.952Z" fill="black"/>
<defs>
<linearGradient id="paint0_linear" x1="93.4955" y1="46.3892" x2="383.759" y2="299.983" gradientUnits="userSpaceOnUse">
<stop stop-color="#808BFF"/>
<stop offset="1" stop-color="#0016FF"/>
</linearGradient>
<linearGradient id="paint1_linear" x1="107.633" y1="267.29" x2="403.199" y2="346.373" gradientUnits="userSpaceOnUse">
<stop stop-color="#B3B3FF"/>
<stop offset="1" stop-color="#4D4EFE"/>
</linearGradient>
<linearGradient id="paint2_linear" x1="222.06" y1="270.383" x2="287.447" y2="298.658" gradientUnits="userSpaceOnUse">
<stop stop-color="white"/>
<stop offset="1" stop-color="#9698C5"/>
</linearGradient>
<linearGradient id="paint3_linear" x1="155.348" y1="253.152" x2="351.949" y2="273.917" gradientUnits="userSpaceOnUse">
<stop stop-color="white"/>
<stop offset="1" stop-color="#9698C5"/>
</linearGradient>
</defs>
</svg>
