<svg width="352" height="338" viewBox="0 0 352 338" fill="none" xmlns="http://www.w3.org/2000/svg">
<path d="M71.2227 200.684C91.1413 279.075 159.966 335.661 240.752 337.931C283.461 339.131 328.403 324.954 361.124 275.345C419.616 186.664 357.529 125.383 314.244 96.2628C293.332 82.1661 274.489 65.2159 258.261 45.9034C229.024 11.179 172.777 -31.9709 105.789 35.6384C57.237 84.6417 57.9549 148.469 71.2227 200.684Z" fill="url(#paint0_linear)"/>
<path d="M10.1044 188.538L6.21283 176.624L99.4064 175.604L103.225 187.4L10.1044 188.538Z" fill="#3F3D56"/>
<path opacity="0.15" d="M10.1044 188.538L6.21283 176.624L99.4064 175.604L103.225 187.4L10.1044 188.538Z" fill="#0A1034"/>
<path d="M3.89154 188.538L0 176.624L93.1936 175.604L97.0117 187.4L3.89154 188.538Z" fill="#E0ECF8"/>
<path d="M162.984 170.23C153.349 170.23 145.755 166.405 140.203 158.756C134.651 151.106 131.875 141.84 131.875 130.956C131.875 119.999 134.559 110.751 139.929 103.212C145.298 95.6741 152.872 91.9087 162.651 91.9163C173.021 91.9163 180.834 95.8878 186.091 103.831C191.347 111.774 193.976 120.967 193.978 131.411C193.978 141.779 191.258 150.842 185.817 158.601C180.376 166.359 172.765 170.236 162.984 170.23ZM163.267 161.625C169.606 161.625 174.344 158.862 177.48 153.337C180.617 147.811 182.185 140.845 182.185 132.439C182.185 123.082 180.58 115.42 177.37 109.454C174.16 103.487 169.237 100.503 162.6 100.501C149.986 100.501 143.679 110.521 143.679 130.561C143.679 151.272 150.206 161.627 163.261 161.625H163.267ZM166.441 244.028H152.504L243.744 93.4497H257.418L166.441 244.028ZM247.158 245.573C237.377 245.573 229.752 241.713 224.283 233.994C218.814 226.275 216.068 217.007 216.045 206.191C216.045 195.308 218.711 186.096 224.043 178.558C229.375 171.02 236.968 167.254 246.822 167.262C257.118 167.262 264.877 171.233 270.098 179.177C275.318 187.12 277.93 196.312 277.932 206.753C277.932 217.054 275.229 226.1 269.824 233.892C264.418 241.685 256.861 245.578 247.152 245.573H247.158ZM247.322 236.748C253.631 236.748 258.343 234.032 261.459 228.6C264.575 223.169 266.133 216.231 266.133 207.787C266.133 198.75 264.556 191.171 261.402 185.051C258.249 178.93 253.336 175.865 246.664 175.855C233.976 175.855 227.632 185.875 227.632 205.915C227.629 226.472 234.19 236.749 247.316 236.748H247.322Z" fill="#3F3D56"/>
<path d="M162.984 170.23C153.349 170.23 145.755 166.405 140.203 158.756C134.651 151.106 131.875 141.84 131.875 130.956C131.875 119.999 134.559 110.751 139.929 103.212C145.298 95.6741 152.872 91.9087 162.651 91.9163C173.021 91.9163 180.834 95.8878 186.091 103.831C191.347 111.774 193.976 120.967 193.978 131.411C193.978 141.779 191.258 150.842 185.817 158.601C180.376 166.359 172.765 170.236 162.984 170.23ZM163.267 161.625C169.606 161.625 174.344 158.862 177.48 153.337C180.617 147.811 182.185 140.845 182.185 132.439C182.185 123.082 180.58 115.42 177.37 109.454C174.16 103.487 169.237 100.503 162.6 100.501C149.986 100.501 143.679 110.521 143.679 130.561C143.679 151.272 150.206 161.627 163.261 161.625H163.267ZM166.441 244.028H152.504L243.744 93.4497H257.418L166.441 244.028ZM247.158 245.573C237.377 245.573 229.752 241.713 224.283 233.994C218.814 226.275 216.068 217.007 216.045 206.191C216.045 195.308 218.711 186.096 224.043 178.558C229.375 171.02 236.968 167.254 246.822 167.262C257.118 167.262 264.877 171.233 270.098 179.177C275.318 187.12 277.93 196.312 277.932 206.753C277.932 217.054 275.229 226.1 269.824 233.892C264.418 241.685 256.861 245.578 247.152 245.573H247.158ZM247.322 236.748C253.631 236.748 258.343 234.032 261.459 228.6C264.575 223.169 266.133 216.231 266.133 207.787C266.133 198.75 264.556 191.171 261.402 185.051C258.249 178.93 253.336 175.865 246.664 175.855C233.976 175.855 227.632 185.875 227.632 205.915C227.629 226.472 234.19 236.749 247.316 236.748H247.322Z" fill="#3F3D56"/>
<path opacity="0.15" d="M162.984 170.23C153.349 170.23 145.755 166.405 140.203 158.756C134.651 151.106 131.875 141.84 131.875 130.956C131.875 119.999 134.559 110.751 139.929 103.212C145.298 95.6741 152.872 91.9087 162.651 91.9163C173.021 91.9163 180.834 95.8878 186.091 103.831C191.347 111.774 193.976 120.967 193.978 131.411C193.978 141.779 191.258 150.842 185.817 158.601C180.376 166.359 172.765 170.236 162.984 170.23ZM163.267 161.625C169.606 161.625 174.344 158.862 177.48 153.337C180.617 147.811 182.185 140.845 182.185 132.439C182.185 123.082 180.58 115.42 177.37 109.454C174.16 103.487 169.237 100.503 162.6 100.501C149.986 100.501 143.679 110.521 143.679 130.561C143.679 151.272 150.206 161.627 163.261 161.625H163.267ZM166.441 244.028H152.504L243.744 93.4497H257.418L166.441 244.028ZM247.158 245.573C237.377 245.573 229.752 241.713 224.283 233.994C218.814 226.275 216.068 217.007 216.045 206.191C216.045 195.308 218.711 186.096 224.043 178.558C229.375 171.02 236.968 167.254 246.822 167.262C257.118 167.262 264.877 171.233 270.098 179.177C275.318 187.12 277.93 196.312 277.932 206.753C277.932 217.054 275.229 226.1 269.824 233.892C264.418 241.685 256.861 245.578 247.152 245.573H247.158ZM247.322 236.748C253.631 236.748 258.343 234.032 261.459 228.6C264.575 223.169 266.133 216.231 266.133 207.787C266.133 198.75 264.556 191.171 261.402 185.051C258.249 178.93 253.336 175.865 246.664 175.855C233.976 175.855 227.632 185.875 227.632 205.915C227.629 226.472 234.19 236.749 247.316 236.748H247.322Z" fill="#0A1034"/>
<path d="M154.23 170.23C144.594 170.23 137 166.405 131.448 158.756C125.896 151.106 123.12 141.84 123.12 130.956C123.12 119.999 125.805 110.751 131.174 103.212C136.544 95.6741 144.118 91.9087 153.896 91.9163C164.266 91.9163 172.08 95.8878 177.336 103.831C182.593 111.774 185.222 120.967 185.224 131.411C185.224 141.779 182.503 150.842 177.062 158.601C171.621 166.359 164.01 170.236 154.23 170.23ZM154.512 161.625C160.851 161.625 165.589 158.862 168.726 153.337C171.862 147.811 173.43 140.845 173.43 132.439C173.43 123.082 171.825 115.42 168.615 109.454C165.405 103.487 160.482 100.503 153.846 100.501C141.232 100.501 134.925 110.521 134.925 130.561C134.925 151.272 141.452 161.627 154.506 161.625H154.512ZM157.686 244.028H143.75L234.989 93.4497H248.663L157.686 244.028ZM238.403 245.573C228.623 245.573 220.998 241.713 215.528 233.994C210.059 226.275 207.313 217.007 207.291 206.191C207.291 195.308 209.957 186.096 215.288 178.558C220.62 171.02 228.213 167.254 238.067 167.262C248.364 167.262 256.122 171.233 261.343 179.177C266.564 187.12 269.175 196.312 269.177 206.753C269.177 217.054 266.474 226.1 261.069 233.892C255.664 241.685 248.107 245.578 238.398 245.573H238.403ZM238.567 236.748C244.876 236.748 249.588 234.032 252.704 228.6C255.82 223.169 257.378 216.231 257.378 207.787C257.378 198.75 255.801 191.171 252.648 185.051C249.494 178.93 244.579 175.865 237.903 175.855C225.216 175.855 218.872 185.875 218.872 205.915C218.872 226.472 225.435 236.749 238.561 236.748H238.567Z" fill="#E0ECF8"/>
<defs>
<linearGradient id="paint0_linear" x1="292.246" y1="351.19" x2="64.8156" y2="48.6049" gradientUnits="userSpaceOnUse">
<stop stop-color="#A6ADF5" stop-opacity="0.03"/>
<stop offset="1" stop-color="#808BFF"/>
</linearGradient>
</defs>
</svg>
