<svg width="375" height="316" viewBox="0 0 375 316" fill="none" xmlns="http://www.w3.org/2000/svg">
<path d="M354.664 76.8151C309.491 9.62546 214.067 -17.6296 120.221 11.7247C70.6068 27.2435 22.7698 58.3376 -0.937012 118.546C-43.3155 226.175 45.6635 260.549 103.846 271.504C131.98 276.802 158.477 285.7 182.691 297.815C226.253 319.612 303.362 338.926 361.507 248.133C403.65 182.326 384.753 121.57 354.664 76.8151Z" fill="url(#paint0_linear)"/>
<path d="M92.7703 90.1083C92.6439 89.0404 92.3883 87.9947 92.01 86.9972C91.9617 86.8085 91.8773 86.6327 91.762 86.4809C91.6466 86.3291 91.503 86.2046 91.3402 86.1154C91.1226 86.0549 90.8944 86.0522 90.6756 86.1074L87.2635 86.6655C86.9779 86.6795 86.7044 86.793 86.485 86.9889C86.0405 87.4884 86.4781 88.2929 86.4645 88.9821C86.4492 89.7571 85.805 90.3862 85.1064 90.5943C84.3933 90.7483 83.6577 90.7385 82.9484 90.5657L78.1773 89.7732C79.5824 89.2936 80.8332 88.4015 81.7867 87.1986C82.4146 86.4035 82.7486 84.9192 81.8412 84.5427C81.5716 84.4636 81.2905 84.4395 81.0125 84.4716C78.8508 84.4895 77.1498 82.5603 75.1261 81.7478C73.8309 81.2614 72.4249 81.2252 71.1093 81.6444C69.7937 82.0636 68.6358 82.9168 67.8011 84.0819L70.3428 84.2128C70.5819 84.1987 70.819 84.2663 71.0198 84.4058C71.5768 84.895 70.8843 85.8346 70.9628 86.6006C71.0648 87.5958 72.301 87.8083 73.2329 87.909C74.1648 88.0096 75.347 88.8189 74.8987 89.6979C70.2149 91.4224 65.4487 86.327 60.5297 86.9542C59.2848 87.113 58.1092 87.6358 56.8937 87.9645C49.4686 89.9726 41.7924 84.6148 34.2073 85.7495C32.521 86.0568 30.8637 86.524 29.255 87.1456C28.2226 87.5079 27.1458 87.8994 26.3957 88.7397C25.6456 89.58 25.3602 91.017 26.0708 91.8956C24.1121 92.068 22.1405 91.8677 20.2473 91.304C20.7593 91.6081 21.1852 92.054 21.4803 92.5948C21.7754 93.1356 21.9289 93.7513 21.9247 94.3774C18.8665 94.9104 15.8894 95.8807 13.0733 97.2622C13.5989 98.1964 14.2128 99.0705 14.9053 99.8708L11.0338 102.529C12.3418 102.882 13.018 104.788 12.2574 105.979C13.6136 105.334 14.4542 103.665 15.9044 103.327C16.8545 103.106 17.8213 103.521 18.7226 103.911C19.6239 104.302 20.6146 104.68 21.5477 104.387C22.4807 104.094 23.1689 102.801 22.576 101.977C26.5642 100.733 30.6859 100.045 34.8389 99.9292C35.1593 99.8862 35.4843 99.9522 35.7677 100.118C36.3083 100.519 36.166 101.384 36.1369 102.087C36.1078 102.79 36.6201 103.713 37.2076 103.396C36.5164 104.037 37.1073 105.243 37.7705 105.917C38.4336 106.591 39.2329 107.52 38.8269 108.397C38.7209 108.625 38.5412 108.808 38.4392 109.039C38.1383 109.72 38.6161 110.515 39.1797 110.967C39.7433 111.419 40.4336 111.736 40.8251 112.362C41.2166 112.988 41.0388 114.085 40.3388 114.173L38.349 111.472C37.6692 112.226 37.2031 113.17 37.0049 114.195C39.1148 116.038 39.4322 119.791 37.6657 122.009C36.763 123.143 35.4793 123.832 34.3589 124.716C33.2385 125.6 32.2018 126.859 32.2046 128.348C32.2094 130.92 32.0129 133.309 32.9145 135.694C34.5771 140.09 36.4966 144.371 38.6617 148.51C39.2302 149.597 39.965 150.788 41.1168 150.976C39.6612 147.188 38.3508 143.341 37.1857 139.435C37.9446 139.439 38.8215 139.503 39.2664 140.16C39.6348 140.704 39.5556 141.444 39.6701 142.104C39.8157 142.744 40.0584 143.354 40.3887 143.91L47.3398 157.145C47.916 158.242 48.577 159.42 49.6783 159.864C50.3824 160.149 51.1971 160.095 51.8452 160.504C52.3531 160.825 52.6953 161.394 53.2131 161.696C54.6774 162.549 56.7137 160.912 58.0821 161.931C58.4733 162.223 58.7223 162.686 59.0828 163.02C60.3466 164.19 62.4199 163.407 63.8788 164.28C64.8191 164.842 65.3064 165.967 65.808 166.986C67.0642 169.54 69.097 172.041 71.7893 172.245C72.635 172.308 73.4989 172.137 74.3255 172.338C75.1522 172.539 75.966 173.31 75.8333 174.205C75.6058 175.74 76.3151 177.42 76.1246 178.96C75.7776 181.766 72.0546 182.999 71.7348 185.808C71.6648 186.423 71.7744 187.058 71.6373 187.66C71.4694 188.398 70.951 188.999 70.7667 189.732C70.4176 191.122 71.3493 192.505 72.3727 193.441C73.3962 194.376 74.6169 195.182 75.1765 196.491C75.7679 197.875 75.4774 199.488 75.6697 200.995C76.0896 204.285 78.7484 206.725 81.4847 208.297C82.3184 208.777 83.2135 209.241 83.7531 210.072C84.4574 211.157 84.3873 212.587 84.6224 213.884C85.1984 217.059 87.699 219.675 87.77 222.908C87.8205 225.206 86.6253 227.291 85.9114 229.46C85.2421 231.537 84.9999 233.745 85.2013 235.932C85.4027 238.118 86.0431 240.233 87.0786 242.131C87.6127 243.095 88.2515 244.004 88.6293 245.049C89.3034 246.914 89.0847 249.033 89.7063 250.919C90.5281 253.412 92.7864 255.471 92.5703 258.104C93.5955 260.379 95.8594 261.498 98.1359 262.175L102.216 263.389C102.997 263.621 103.813 263.856 104.609 263.687C105.404 263.519 106.164 262.813 106.143 261.946C104.142 261.464 102.077 260.951 100.428 259.648C98.7787 258.345 97.6489 256.024 98.2747 253.936C98.5648 252.968 99.1822 251.85 98.5953 251.051C98.2592 250.593 97.6447 250.473 97.2657 250.055C96.6745 249.403 96.8776 248.308 97.3027 247.522C97.7277 246.736 98.342 246.034 98.5134 245.145C98.6 244.647 98.5421 244.134 98.3477 243.672C98.1533 243.211 97.8315 242.824 97.4256 242.564C98.1821 242.259 98.8702 241.787 99.445 241.179C99.9761 240.531 100.221 239.531 99.8037 238.794C101.044 238.963 102.509 239.045 103.323 238.031C103.974 237.221 103.929 236.01 103.672 234.978C103.415 233.947 102.981 232.945 102.967 231.878C105.829 232.022 108.697 231.919 111.543 231.567C111.132 230.085 110.196 228.833 108.936 228.076C110.225 227.843 111.399 226.194 111.806 224.866C112.213 223.538 112.11 222.092 111.858 220.72C111.761 220.367 111.748 219.994 111.819 219.634C111.964 219.14 112.419 218.838 112.839 218.58L119.237 214.653C119.619 214.448 119.965 214.175 120.26 213.845C120.931 213.004 120.831 211.733 120.488 210.691C120.145 209.648 119.595 208.668 119.463 207.571C119.068 204.293 122.351 201.94 123.459 198.854C123.894 197.643 123.982 196.327 124.067 195.033C124.157 193.643 124.164 192.028 123.165 191.132C122.208 190.274 120.713 190.465 119.711 189.667C118.793 188.934 118.476 187.512 117.473 186.921C116.562 186.384 115.42 186.725 114.407 186.473C112.623 186.028 111.5 183.83 109.679 183.627C108.651 183.512 107.487 184.049 106.645 183.409C105.902 182.846 105.873 181.712 105.731 180.751C105.484 179.256 104.814 177.879 103.811 176.804C102.809 175.729 101.522 175.008 100.125 174.738C99.065 174.557 97.9114 174.626 97.0097 174.003C96.0968 173.373 95.6782 172.193 94.961 171.32C93.8052 169.913 91.9849 169.413 90.2796 168.984L83.3434 167.241C82.1121 166.932 80.5249 166.768 79.8642 167.921C79.6686 168.36 79.5301 168.825 79.4526 169.304C79.2051 170.171 78.7068 170.931 78.0294 171.476C77.3521 172.021 76.5306 172.323 75.6829 172.337C75.1016 171.277 74.1598 170.498 73.0541 170.163C72.3508 169.953 71.5979 169.93 70.9271 169.622C70.5618 169.431 70.2367 169.163 69.9717 168.833C69.7068 168.504 69.5075 168.12 69.3862 167.705C69.2648 167.291 69.2239 166.854 69.2659 166.422C69.308 165.989 69.4321 165.571 69.6307 165.192C70.0306 164.431 70.1851 163.55 70.0702 162.686C69.9553 161.822 69.5776 161.022 68.9952 160.41C67.8156 159.278 66.1093 159.005 64.5277 159.118C64.1134 158.152 64.8061 157.062 65.5524 156.36C66.2988 155.657 67.2052 154.967 67.3677 153.919C67.6234 152.269 65.6547 151.017 64.1599 151.509C62.6651 152 61.711 153.552 61.0803 155.082C60.7184 155.96 60.4108 156.884 59.84 157.624C59.2692 158.364 58.3501 158.894 57.4806 158.657C56.2498 158.32 55.7744 156.757 55.502 155.431C55.1365 153.652 54.7689 151.847 54.8455 150.027C54.9221 148.207 55.4961 146.338 56.7517 145.106C58.7978 143.098 61.9366 143.295 64.6979 143.615C64.0455 142.83 64.2067 141.506 64.9048 140.766C65.2732 140.416 65.716 140.168 66.1947 140.042C66.6734 139.916 67.1735 139.917 67.6517 140.045C68.4838 140.23 69.2334 140.709 69.7798 141.405C70.5645 142.427 70.7876 143.808 71.3807 144.969C71.9739 146.13 73.3075 147.12 74.3991 146.497C75.342 145.959 75.4917 144.562 75.257 143.447C75.0223 142.333 74.5239 141.249 74.6089 140.11C74.7711 137.937 76.8784 136.629 78.7379 135.734C80.5974 134.84 82.7266 133.636 83.0212 131.479C83.0313 131.057 83.1059 130.639 83.2419 130.243C83.4481 129.892 83.7347 129.604 84.0745 129.406C89.5015 125.572 95.0188 121.692 101.222 119.597C101.544 119.488 101.582 119.609 101.911 119.524C102.371 119.239 102.066 118.453 101.625 118.136C101.184 117.819 100.594 117.576 100.482 117.02C100.4 116.612 100.625 116.211 100.683 115.798C100.827 114.783 99.6911 113.846 98.809 114.252C98.3107 113.546 99.2966 112.727 100.094 112.492C102.488 111.788 104.945 111.359 107.424 111.212C107.71 111.164 108.003 111.217 108.258 111.364C108.675 111.672 108.621 112.379 108.326 112.819C108.031 113.259 107.572 113.536 107.204 113.908C106.803 114.326 106.516 114.855 106.376 115.435C106.236 116.016 106.248 116.626 106.41 117.2C107.704 117.904 109.111 118.628 110.545 118.38C111.978 118.132 113.25 116.411 112.577 115.036C111.949 113.756 110.065 113.467 109.74 112.064C109.361 110.421 111.537 108.96 111.047 107.351C110.832 106.646 110.175 106.231 109.671 105.722C109.075 105.098 108.67 104.297 108.509 103.422C108.347 102.548 108.437 101.641 108.766 100.822C107.945 100.977 107.101 100.919 106.305 100.652C105.509 100.386 104.784 99.9198 104.192 99.2924C103.098 98.1122 102.225 96.2504 100.671 96.3032C99.2454 96.3516 98.0174 98.1296 96.6843 97.5872C96.3563 97.4537 96.0105 97.1821 95.6928 97.3412C95.5886 97.4135 95.5012 97.5102 95.4371 97.6238C95.3731 97.7375 95.334 97.8653 95.3229 97.9975C94.9841 99.7288 95.5669 101.701 94.6841 103.197C93.7235 104.825 91.5015 105.051 90.3369 106.519C89.7047 107.316 89.4598 108.39 88.8787 109.23C88.2976 110.07 87.0643 110.605 86.367 109.872C86.7097 109.119 86.8033 108.264 86.6324 107.447C86.4616 106.629 86.0365 105.898 85.4265 105.373C84.779 104.921 84.0811 104.558 83.3491 104.293C82.5312 103.923 81.7531 103.459 81.0284 102.91C80.6654 102.676 80.3704 102.339 80.1764 101.936C80.023 101.431 80.0437 100.885 80.2347 100.395C80.5883 99.3112 81.2121 98.3513 82.0388 97.6189C82.8655 96.8866 83.8636 96.4094 84.9254 96.2391C85.8539 96.1041 86.9345 96.1517 87.549 95.3955C87.8741 94.9954 88.0447 94.3904 88.5166 94.2279C88.8185 94.1631 89.1319 94.2044 89.41 94.3455L92.8756 95.6494C93.2623 95.836 93.6879 95.9112 94.1102 95.8677C94.3195 95.8375 94.5105 95.7238 94.6448 95.5494C94.779 95.3751 94.8466 95.1528 94.8339 94.9274C94.7232 94.3122 93.8376 94.0171 93.9182 93.3966C93.9633 93.1955 94.0645 93.0138 94.2083 92.8754C95.4589 91.4525 96.9885 90.3428 98.6874 89.6257C100.386 88.9086 102.212 88.6019 104.035 88.7275C104.473 89.4953 103.781 90.4047 103.205 91.0602C102.63 91.7157 102.167 92.887 102.863 93.3916C103.148 93.5472 103.466 93.6236 103.786 93.6137C104.639 93.7372 105.468 94.006 106.242 94.41C107.439 94.967 108.614 95.5766 109.766 96.2385C109.664 95.4269 109.567 94.5719 109.855 93.813C110.142 93.0541 110.96 92.4589 111.675 92.7544C112.363 93.0393 112.716 94.0138 113.45 94.103C114.429 94.2221 114.815 92.6769 114.406 91.7192C113.997 90.7614 113.188 89.9595 113.12 88.9093C113.075 88.2007 113.327 87.322 112.798 86.893C112.609 86.7642 112.395 86.684 112.173 86.6589L98.9524 84.0584C98.1673 83.904 97.0331 84.0224 96.9983 84.8748C96.9788 85.3506 97.3765 85.8213 97.2003 86.2588C97.0124 86.7257 96.3949 86.683 95.9451 86.8482C95.2473 87.1044 94.8971 87.9902 94.9641 88.7756C95.0868 89.5561 95.3696 90.2979 95.7922 90.9477C94.9322 90.5633 93.6302 90.4927 92.7703 90.1083Z" fill="#0A1034"/>
<path d="M82.2215 78.1125C81.3879 77.8176 80.4895 77.8038 79.6483 78.0731C78.8071 78.3424 78.0637 78.8817 77.5189 79.6179C77.3012 79.9242 77.1184 80.3466 77.3006 80.6783C77.5619 81.1539 78.2276 80.966 78.7184 80.7959C79.4399 80.5204 80.2251 80.5004 80.958 80.7388C81.4189 80.908 81.8312 81.2069 82.2941 81.3696C82.5194 81.4704 82.7662 81.5036 83.0078 81.4659C83.2495 81.4281 83.477 81.3208 83.666 81.1553C83.9837 80.809 84.0036 80.2706 84.0042 79.7856C84.0262 79.6233 84.014 79.4578 83.9686 79.3011C83.9232 79.1445 83.8456 79.0006 83.7415 78.8801C83.5562 78.7654 83.348 78.6996 83.1342 78.6881C82.6552 78.5934 82.2222 78.3229 81.9098 77.9235" fill="#0A1034"/>
<path d="M86.9886 76.6938C86.8021 76.6829 86.616 76.7236 86.4484 76.8118C86.2808 76.9 86.1372 77.0328 86.0315 77.1975C85.9257 77.3621 85.8614 77.5531 85.8447 77.752C85.828 77.9509 85.8594 78.1511 85.936 78.3333C86.509 78.5003 87.1076 78.542 87.696 78.4559C87.9895 78.4072 88.2629 78.2668 88.4818 78.0522C88.7007 77.8377 88.8553 77.5587 88.9261 77.2504C88.2334 77.3851 87.5185 77.2392 86.921 76.841" fill="#0A1034"/>
<path d="M102.983 74.3244C101.423 74.6788 99.9083 75.2289 98.4696 75.9632C99.1478 76.2418 99.7244 76.746 100.114 77.4014C100.504 78.0568 100.687 78.8288 100.635 79.6035C100.574 79.901 100.581 80.2097 100.656 80.5036C100.822 80.9331 101.302 81.0943 101.724 81.2045C102.483 81.4513 103.275 81.5594 104.067 81.5242C104.464 81.502 104.848 81.3746 105.187 81.1534C105.526 80.9322 105.807 80.6242 106.007 80.2574C106.122 79.9092 106.256 79.5688 106.41 79.2382C107.422 77.5906 110.429 79.5829 111.516 77.9904C111.899 77.4294 111.864 76.585 112.363 76.1404C112.621 75.9468 112.92 75.8247 113.233 75.7853C115.418 75.3212 117.626 74.9852 119.846 74.7787C120.897 74.6809 122.268 74.2772 122.277 73.1488C118.315 72.3172 114.208 72.9078 110.593 74.8289C109.29 75.5262 107.568 76.993 106.313 76.0686C105.844 75.7224 105.867 74.7904 105.22 74.4012C104.559 74.0032 103.684 74.1651 102.983 74.3244Z" fill="#0A1034"/>
<path d="M115.938 76.914L117.797 77.2959C117.455 77.2797 117.113 77.3417 116.795 77.4778C116.477 77.6139 116.19 77.8209 115.953 78.0851C115.715 78.3492 115.533 78.6645 115.419 79.0097C115.305 79.355 115.261 79.7223 115.29 80.0872C117.031 80.709 118.93 80.1039 120.764 80.1866C122.598 80.2693 124.733 81.6698 124.419 83.6036C124.325 84.1883 124.009 84.7726 124.173 85.3394C124.288 85.7367 124.616 86.0185 124.801 86.3844C125.187 87.1469 124.878 88.1112 124.392 88.8043C123.905 89.4974 123.251 90.0504 122.823 90.7869C121.76 92.6188 122.364 94.9871 122.997 97.0336C123.18 97.8069 123.518 98.5285 123.988 99.1484C124.926 100.214 126.454 100.307 127.823 100.328C128.82 100.344 129.961 100.291 130.591 99.4662C131.414 98.3889 130.839 96.7082 131.38 95.4439C131.872 94.2957 133.125 93.8031 134.26 93.4537C136.34 92.8136 138.46 92.2695 140.427 91.3027C142.868 90.1022 145.15 88.2313 147.834 88.0768C148.587 88.0334 149.359 88.1284 150.084 87.9079C150.809 87.6874 151.498 87.0171 151.443 86.2133C151.397 85.5265 150.853 85.0221 150.428 84.5044C150.003 83.9866 149.67 83.1904 150.06 82.6426L157.095 81.2382C156.596 79.7856 156.208 77.8725 157.354 76.927C157.767 76.5859 158.32 76.4495 158.672 76.0371C159.272 75.3342 158.971 74.1234 158.278 73.5256C157.586 72.9278 156.649 72.789 155.762 72.7102C152.678 72.4364 149.575 72.6174 146.485 72.7984C140.444 73.1524 134.402 73.5064 128.361 73.8603C127.145 73.9316 125.741 73.8227 124.625 74.2662C123.681 74.6417 123.01 75.3309 121.93 75.573C119.936 76.02 117.742 75.7175 115.938 76.914Z" fill="#0A1034"/>
<path d="M149.251 92.6251C149.062 92.5931 148.868 92.6401 148.71 92.7563C148.605 92.8793 148.543 93.0367 148.534 93.2025C148.414 93.9342 148.557 94.6874 148.934 95.3112C149.126 95.6173 149.392 95.8627 149.703 96.0221C150.014 96.1814 150.359 96.2489 150.703 96.2175C151.54 96.1034 152.157 95.3398 152.927 94.9672C154.113 94.3935 159.152 93.4991 155.666 91.4863C154.465 90.7927 153.689 91.405 152.742 91.8618C151.665 92.4508 150.458 92.7147 149.251 92.6251V92.6251Z" fill="#0A1034"/>
<path d="M179.779 75.7777C179.372 75.9554 179.032 76.2722 178.811 76.6786C178.709 76.885 178.686 77.1252 178.745 77.3496C178.804 77.5741 178.942 77.7656 179.13 77.8844C179.282 77.9433 179.443 77.9707 179.605 77.9649L181.259 78.0178C181.962 78.0402 182.841 78.2003 183.03 78.9244C183.17 79.4621 182.856 80.153 183.235 80.5373C183.397 80.6719 183.593 80.7534 183.798 80.772C184.343 80.9217 184.912 80.9413 185.465 80.8295C186.669 80.4843 186.036 79.6988 186.416 78.9994C186.996 77.9292 186.895 78.577 187.918 77.9637C188.673 77.5107 189.648 76.689 189.018 75.5346C187.922 73.527 181.396 74.9153 179.779 75.7777Z" fill="#0A1034"/>
<path d="M212.441 74.7684L211.48 74.9055C209.314 75.2146 207.134 75.5265 205.047 76.222C205.951 76.6038 206.899 76.8524 207.865 76.961C208.397 76.9888 208.925 77.0691 209.443 77.2007C210.365 77.4941 211.293 78.2515 212.184 77.8635C212.736 77.6229 212.916 77.0084 213.374 76.6827C213.69 76.4578 214.888 76.0938 215.021 75.8668C216.104 74.0317 213.274 74.6497 212.441 74.7684Z" fill="#0A1034"/>
<path d="M216.661 79.4366C215.377 80.2038 214.186 81.136 213.115 82.2124C212.663 82.6661 212.202 83.2303 212.243 83.8912C212.297 84.7695 213.173 85.279 213.931 85.6223L217.003 87.0124C217.376 86.451 217.035 85.676 216.649 85.1243C216.264 84.5726 215.807 83.9342 215.977 83.2703C216.171 82.5127 217.035 82.2545 217.76 82.124C218.941 81.9113 222.126 81.9284 221.743 79.8943C221.292 77.4976 217.846 78.7284 216.661 79.4366Z" fill="#0A1034"/>
<path d="M216.043 215.069C215.751 215.974 215.723 217.04 216.229 217.83C216.796 218.717 217.932 219.048 218.915 218.823C219.894 218.544 220.766 217.945 221.409 217.109C221.998 216.408 222.481 215.615 222.844 214.757C223.35 213.42 223.707 212.024 223.907 210.598L224.861 205.246C225.074 204.049 225.066 200.382 223.009 201.577C222.447 201.903 221.146 204.48 220.557 205.211C219.496 206.529 219.355 207.807 218.797 209.403C218.097 211.401 216.69 213.067 216.043 215.069Z" fill="#0A1034"/>
<path d="M324.686 242.461C324.013 242.18 323.36 241.847 322.732 241.466C322.102 243.317 321.767 245.268 321.741 247.238L326.347 244.452C327.04 244.033 327.825 243.451 327.81 242.6C327.816 242.495 327.796 242.39 327.751 242.297C327.706 242.203 327.639 242.124 327.555 242.068C327.453 242.024 327.341 242.01 327.232 242.027C326.549 242.088 325.927 242.447 325.282 242.697C324.638 242.947 323.885 243.079 323.294 242.708" fill="#0A1034"/>
<path d="M348.983 244.114C348.477 244.262 347.983 244.451 347.506 244.681C346.449 245.256 345.73 246.348 344.779 247.105C343.868 247.829 342.773 248.227 341.697 248.614C341.381 248.913 341.526 249.515 341.87 249.777C342.239 250.002 342.662 250.104 343.086 250.07C344.203 250.096 345.381 250.108 346.359 249.531C346.911 249.148 347.427 248.71 347.901 248.223C349.045 247.203 350.419 246.529 351.78 245.878C352.275 245.679 352.733 245.386 353.132 245.014C353.986 244.114 354.046 242.725 352.814 242.419C351.818 242.171 349.931 243.787 348.983 244.114Z" fill="#0A1034"/>
<path d="M359.718 236.619C359.773 236 359.696 235.375 359.492 234.792C359.289 234.209 358.964 233.683 358.542 233.254C358.53 234.493 358.494 235.814 357.842 236.839C357.378 237.569 356.649 238.062 356.14 238.758C355.631 239.453 355.405 240.556 356.002 241.166C356.384 241.476 356.849 241.647 357.328 241.654C358.517 241.804 359.893 241.887 360.726 240.969C361.181 240.468 361.403 239.726 361.957 239.358C362.164 239.265 362.349 239.124 362.498 238.945C362.727 238.555 362.363 238.042 361.953 237.902C361.543 237.762 361.091 237.828 360.68 237.694C360.268 237.561 359.89 237.066 360.101 236.665" fill="#0A1034"/>
<path d="M340.638 191.181C340.015 191.343 339.369 191.384 338.732 191.301C337.674 191.093 336.85 190.241 335.996 189.542C333.965 187.889 331.496 186.967 328.944 186.908C326.623 186.861 324.28 187.534 322 187.065C322.149 187.95 322.858 188.614 323.615 189.009C324.371 189.404 325.206 189.603 325.966 189.989C327.183 190.615 328.149 191.689 328.685 193.013C328.93 193.624 329.084 194.289 329.455 194.822C330.213 195.912 331.649 196.151 332.917 196.062C334.57 195.946 336.297 195.438 337.834 196.096C339.011 196.6 339.853 197.7 340.835 198.556C341.817 199.412 343.201 200.047 344.329 199.43C343.157 199.024 342.138 198.229 341.419 197.16C340.7 196.092 340.319 194.805 340.333 193.489C341.439 193.598 344.625 193.556 344.454 191.547C344.308 189.844 341.588 190.997 340.638 191.181Z" fill="#0A1034"/>
<path d="M326.166 205.035C326.363 203.883 327.437 202.867 327.102 201.752C326.871 200.981 326.035 200.601 325.278 200.582C324.521 200.563 323.777 200.804 323.02 200.827C322.527 200.799 322.033 200.806 321.541 200.849C320.039 201.113 319.113 202.797 317.696 203.395C316.835 203.759 315.868 203.69 314.972 203.941C312.939 204.512 311.653 206.566 310.232 208.221C307.936 210.884 304.945 212.749 301.646 213.574C300.49 213.86 299.247 214.043 298.328 214.845C297.112 215.908 296.812 217.73 296.542 219.384C295.794 223.952 294.651 228.437 293.128 232.78L297.955 233.439C298.872 233.564 299.823 233.687 300.708 233.396C301.35 233.137 301.959 232.79 302.518 232.365C304.668 230.938 307.074 230.01 309.581 229.64C310.845 229.455 312.171 229.421 313.357 229.923C314.543 230.425 315.561 231.564 315.66 232.924C316.173 232.753 316.72 232.735 317.242 232.87C317.764 233.006 318.242 233.291 318.624 233.694C319.38 234.517 319.875 235.574 320.039 236.714C320.166 237.42 320.294 238.265 320.906 238.561C321.406 238.803 321.98 238.543 322.527 238.496C324.383 238.337 325.923 240.65 327.747 240.252C329.703 239.825 330.183 236.693 332.092 236.066C333.188 235.706 334.726 236.144 335.25 235.054C335.713 234.093 334.79 232.985 334.885 231.909C335.002 230.585 336.464 230.022 337.591 229.457C341.475 227.509 343.319 221.92 341.436 217.799C340.321 215.357 338.127 213.434 337.721 210.751C337.41 208.687 338.171 206.28 336.94 204.656C336.313 203.829 335.253 203.373 334.88 202.387C334.646 201.766 334.74 201.062 334.614 200.406C334.487 199.75 333.952 199.064 333.346 199.234C331.588 199.728 331.027 205.534 330.085 206.945C328.654 209.09 325.716 207.677 326.166 205.035Z" fill="#0A1034"/>
<path d="M293.661 193.375C293.06 193.195 292.404 193.017 291.828 193.275C291.252 193.532 290.916 194.436 291.378 194.884C294.994 194.734 298.631 194.584 302.216 195.109C306.346 195.714 310.434 197.211 314.582 196.771C312.213 196.024 309.804 195.426 307.368 194.982L303.307 194.152C302.218 193.908 301.117 193.727 300.01 193.608C297.693 193.403 295.939 194.058 293.661 193.375Z" fill="#0A1034"/>
<path d="M297.281 179.915C296.981 179.888 296.609 179.865 296.454 180.141C296.305 180.405 296.475 180.753 296.395 181.048C296.286 181.452 295.792 181.555 295.402 181.5C295.012 181.445 294.591 181.314 294.245 181.515C294.07 181.643 293.939 181.828 293.87 182.042C293.802 182.257 293.8 182.489 293.866 182.705C294.007 183.133 294.236 183.522 294.535 183.844C295.045 184.532 295.627 185.156 296.269 185.704C297.512 186.684 299.195 187.157 299.978 188.58C300.088 188.856 300.258 189.1 300.473 189.292C300.849 189.547 301.339 189.353 301.744 189.156L303.162 188.463C303.417 188.365 303.645 188.199 303.824 187.981C304.148 187.511 303.949 186.843 303.677 186.337C303.406 185.831 303.058 185.307 303.116 184.727C303.22 183.692 304.465 183.296 304.976 182.411C305.492 181.519 305.156 180.369 305.216 179.322C305.285 178.097 306.005 176.505 304.847 175.59C303.863 174.812 302.922 175.531 302.215 176.389C300.725 178.199 300.02 180.16 297.281 179.915Z" fill="#0A1034"/>
<path d="M305.888 161.619C306.372 162.61 307.381 163.201 307.909 164.166C308.481 165.212 308.416 166.563 309.037 167.577C309.674 168.617 310.956 169.169 311.313 170.352C311.703 171.643 310.818 173.213 311.523 174.342C311.655 174.526 311.821 174.679 312.011 174.792C312.2 174.904 312.41 174.973 312.626 174.994C312.842 175.015 313.06 174.988 313.266 174.915C313.471 174.841 313.661 174.723 313.822 174.567C314.119 174.221 314.278 173.765 314.265 173.295C314.252 172.825 314.068 172.38 313.752 172.053C313.334 171.646 312.735 171.47 312.386 170.995C312.205 170.721 312.084 170.406 312.032 170.074C311.842 169.118 311.873 168.127 312.121 167.186C312.214 166.947 312.238 166.684 312.189 166.43C312.032 165.942 311.414 165.908 310.981 165.682C309.996 165.168 310.02 163.682 310.192 162.526C310.077 163.296 307.511 161.986 307.242 161.55C306.708 160.683 306.999 159.011 306.893 158.054C305.741 158.647 305.296 160.408 305.888 161.619Z" fill="#0A1034"/>
<path d="M280.032 176.863C279.559 176.296 278.845 175.703 278.21 176.045C277.726 176.306 277.592 177.023 277.782 177.566C278.014 178.093 278.37 178.547 278.816 178.883C280.139 180.049 281.564 181.102 282.719 182.459C284.785 184.886 285.88 188.161 288.127 190.396C288.578 190.915 289.176 191.261 289.829 191.381C290.484 191.447 291.219 190.999 291.295 190.3C291.357 189.725 290.981 189.211 290.615 188.784C289.742 187.77 288.786 186.835 287.962 185.775C287.582 185.368 287.343 184.834 287.284 184.261C287.28 183.69 287.767 183.093 288.285 183.234C287.655 183.062 287.189 181.941 286.265 181.731C285.493 181.554 285.306 182.065 284.387 181.644C282.635 180.841 281.26 178.332 280.032 176.863Z" fill="#0A1034"/>
<path d="M321.21 121.672C320.707 121.512 320.213 121.323 319.729 121.106C318.428 120.689 316.706 121.711 316.88 123.151C316.995 124.108 317.828 124.753 318.288 125.583C318.971 126.814 318.789 128.376 318.43 129.754C318.342 130.181 318.175 130.584 317.938 130.941C317.607 131.317 317.211 131.621 316.772 131.837C315.015 132.89 313.465 134.298 312.209 135.981C312.072 136.136 311.977 136.328 311.933 136.536C311.871 137.022 312.329 137.377 312.587 137.782C313.161 138.683 312.746 139.895 312.803 140.984C312.794 141.138 312.823 141.291 312.885 141.43C312.947 141.569 313.042 141.689 313.16 141.778C313.506 141.966 313.916 141.647 314.104 141.283C314.726 140.078 314.257 138.142 315.425 137.561C315.646 137.451 315.914 137.405 316.062 137.197C316.295 136.868 316.07 136.381 316.188 135.988C316.366 135.397 317.122 135.37 317.702 135.397C318.701 135.441 319.7 135.299 320.653 134.977C321.027 134.882 321.367 134.671 321.63 134.372C321.979 133.906 321.948 133.244 321.878 132.652C321.529 129.7 320.654 126.846 319.301 124.246C320.327 124.386 321.443 124.507 322.329 123.935C322.824 123.615 323.419 122.658 323.173 122.007C322.784 120.977 322.082 121.844 321.21 121.672Z" fill="#0A1034"/>
<path d="M189.677 137.908C189.8 138.612 189.921 139.353 189.705 140.031C189.489 140.709 188.81 141.275 188.169 141.068C187.672 140.907 187.384 140.372 187.031 139.964C185.066 137.697 180.634 139.01 179.42 136.205C178.925 135.06 179.261 133.689 178.923 132.48C178.71 131.782 178.286 131.179 177.718 130.766C177.149 130.353 176.468 130.154 175.783 130.2C175.157 130.296 174.548 130.491 173.975 130.776C170.138 132.419 166.109 133.496 162 133.978C161.219 134.029 160.447 134.179 159.699 134.425C158.012 135.079 156.859 136.751 156.039 138.457C155.219 140.163 154.613 142.01 153.513 143.526C152.357 145.119 150.737 146.234 149.226 147.441C148.644 147.842 148.159 148.385 147.812 149.025C147.485 149.744 147.503 150.58 147.528 151.379L147.837 161.085C147.877 162.334 147.927 163.627 148.45 164.744C149.102 166.139 150.392 167.053 151.286 168.285C152.199 169.551 152.675 171.116 152.633 172.714C152.613 173.357 152.554 174.117 153.022 174.52C153.307 174.718 153.64 174.82 153.979 174.815L166.262 175.889C168.423 176.078 170.817 176.389 172.228 178.149C172.894 178.979 173.428 180.173 174.448 180.262C174.886 180.3 175.311 180.109 175.749 180.072C176.852 179.978 177.822 180.874 178.434 181.86C179.36 183.363 179.781 185.158 179.626 186.951C179.526 188.076 179.2 189.17 179.129 190.297C178.861 194.588 182.265 198.316 182.331 202.616C182.369 205.146 181.246 207.509 180.151 209.751C181.918 212.613 180.471 216.425 181.175 219.771C181.842 222.945 184.319 225.43 184.936 228.616C185.218 230.075 185.234 231.87 186.438 232.621C186.966 232.896 187.551 233.021 188.137 232.985C191.674 233.029 195.171 232.179 198.341 230.502C199.829 229.713 201.371 228.534 201.631 226.781C201.84 225.367 201.169 223.785 201.852 222.553C202.657 221.101 204.718 221.216 205.902 220.1C207.823 218.289 206.325 214.836 207.104 212.228C207.803 209.883 210.211 208.638 211.405 206.534C211.875 205.629 212.212 204.652 212.405 203.638C212.952 201.214 213.292 198.742 213.422 196.252C213.454 194.74 213.558 193.23 213.734 191.729C215.021 183.182 222.926 177.459 225.492 169.249C225.737 168.465 225.853 167.42 225.2 166.977C224.813 166.779 224.374 166.73 223.957 166.838L218.295 167.601C217.592 167.695 216.846 167.784 216.2 167.472C215.555 167.159 215.092 166.286 215.434 165.623C216.396 163.761 214.418 161.408 213.539 159.5C211.172 154.362 208.354 149.476 205.121 144.908C204.915 144.673 204.785 144.373 204.752 144.052L206.359 144.109C205.817 142.028 204.922 139.752 203.031 138.991C201.965 138.562 200.785 138.71 199.648 138.776C196.392 138.967 192.9 138.441 189.677 137.908Z" fill="#0A1034"/>
<path d="M199.651 91.022C200.503 91.9893 201.458 93.0149 202.691 93.1835C204.868 93.4813 206.434 91.0742 207.431 88.9833C207.468 89.5164 207.698 90.013 208.072 90.3676C208.446 90.7221 208.935 90.9067 209.435 90.882C209.972 90.7853 210.485 90.5709 210.942 90.2522C215.256 87.7318 220.089 86.3964 225.006 86.366C224.959 85.9678 225.051 85.5651 225.265 85.2355C225.48 84.9059 225.8 84.6728 226.166 84.5811C227.166 84.3693 228.066 85.2932 228.548 86.2528C229.031 87.2125 229.331 88.3249 230.098 89.0432C230.864 89.7616 232.347 89.7303 232.65 88.6901C232.94 87.6914 231.967 86.8397 231.158 86.2509C230.35 85.6622 229.497 84.5724 230.042 83.7035C234.173 82.726 238.33 81.7448 242.558 81.5505C243.277 81.5773 243.994 81.4453 244.664 81.1626C245.309 80.8245 245.821 80.0568 245.648 79.3119C244.726 79.5437 243.759 79.4766 242.873 79.1191C241.986 78.7616 241.219 78.13 240.669 77.3047C246.535 76.7873 252.774 76.3463 257.973 79.2965C258.596 80.728 255.417 81.9189 256.268 83.21C256.539 83.6218 257.083 83.67 257.554 83.6794C261.166 83.7511 264.799 83.8214 268.371 83.2384C269.676 83.0254 270.995 82.7246 272.305 82.8974C274.488 83.1851 276.355 84.7418 278.502 85.2494C279.376 85.456 280.356 85.463 281.093 84.9196C281.83 84.3762 282.146 83.1389 281.543 82.4326C283.564 80.3145 286.92 80.8394 289.587 81.8535C292.255 82.8675 294.781 84.5028 297.605 84.7289C299.629 84.8909 301.681 84.3089 303.682 84.6789C304.939 84.9113 306.109 85.5091 307.337 85.8763C309.661 86.5709 312.119 86.4243 314.531 86.4577C320.687 86.5463 326.775 87.8395 332.495 90.2731C333.239 90.5321 333.921 90.9626 334.492 91.5342C335.024 92.1434 335.296 93.0901 334.938 93.8307L329.028 92.9076C329.585 94.0794 331.025 94.2791 332.195 94.6833C333.365 95.0875 334.578 96.4686 333.875 97.5468C332.607 97.1153 331.459 98.47 330.818 99.7165C330.178 100.963 329.398 102.456 328.069 102.532C326.88 102.6 325.441 101.517 324.665 102.484C325.737 103.928 326.654 105.496 327.401 107.157C328.167 108.863 328.712 111.013 327.677 112.548C327.514 112.822 327.267 113.026 326.978 113.127C326.132 113.356 325.583 112.25 324.976 111.58C324.212 110.735 323.057 110.496 322.022 110.1C320.987 109.704 319.897 108.925 319.816 107.753C319.765 107.024 320.126 106.346 320.391 105.672C320.837 104.537 321.032 103.306 320.961 102.077C320.903 101.088 320.643 100.059 319.979 99.3685C319.314 98.6775 318.167 98.4583 317.454 99.0911C317.121 99.3864 316.854 99.8588 316.422 99.8765C315.658 99.9077 315.072 98.4844 314.457 98.9703C314.529 99.4879 314.429 100.016 314.173 100.463C312.34 102.167 309.523 101.446 307.159 102.048C306.035 102.392 304.959 102.895 303.959 103.542C303.585 103.713 303.267 103.999 303.044 104.363C302.749 104.976 303.075 105.761 303.595 106.168C304.146 106.53 304.766 106.756 305.409 106.83C308.291 107.414 311.215 108.317 313.49 110.295C315.765 112.274 317.257 115.545 316.537 118.584L310.854 112.779C311.07 115.216 311.193 117.66 311.222 120.111C311.259 120.589 311.197 121.071 311.042 121.521C310.637 122.478 309.538 122.799 308.576 123.011C308.309 123.065 308.055 123.179 307.831 123.346C307.608 123.513 307.42 123.728 307.28 123.978C307.14 124.227 307.051 124.506 307.019 124.795C306.987 125.084 307.012 125.378 307.094 125.655C307.436 126.847 308.288 127.775 309.069 128.7C309.849 129.626 310.617 130.677 310.719 131.919C310.821 133.16 309.945 134.559 308.783 134.472C307.901 134.407 307.247 133.563 306.871 132.709C306.495 131.854 306.272 130.902 305.707 130.176C303.997 127.977 300.156 128.919 298.624 126.576C298.234 127.049 297.963 127.621 297.838 128.238C297.712 128.855 297.736 129.496 297.908 130.1C298.621 129.623 299.596 130.066 300.132 130.759C300.667 131.452 300.92 132.34 301.34 133.118C301.907 134.168 302.81 135.099 302.89 136.309C302.869 136.766 302.876 137.225 302.911 137.681C303.052 138.414 303.631 138.94 304.033 139.553C304.968 140.978 304.922 142.937 304.319 144.554C303.717 146.172 302.634 147.523 301.561 148.834C299.688 151.122 297.777 153.398 295.556 155.298C294.922 155.841 294.246 156.374 293.851 157.132C293.457 157.89 293.437 158.955 294.043 159.531C293.609 159.555 292.831 159.783 292.397 159.806C292.244 157.945 292.211 156.076 292.298 154.21C290.585 153.331 288.741 155.685 288.962 157.702C289.183 159.718 290.548 161.337 291.52 163.082C292.23 164.358 292.758 165.845 292.521 167.309C292.284 168.772 291.062 170.121 289.678 169.992C287.477 169.787 286.556 166.409 284.376 166.023C284.184 165.974 283.982 165.996 283.802 166.083C283.479 166.273 283.423 166.736 283.404 167.13C283.315 169.064 283.238 171.075 283.944 172.858C284.978 175.467 287.647 177.658 287.087 180.427C284.071 178.928 282.502 175.312 281.79 171.839C281.078 168.366 280.959 164.719 279.683 161.436C278.713 162.764 276.676 161.666 275.791 160.273C274.951 158.952 274.434 157.424 273.619 156.086C272.805 154.747 271.557 153.549 270.065 153.475C268.5 153.398 267.143 154.546 265.95 155.63C264.968 156.522 263.961 157.448 263.387 158.681C262.553 160.475 262.771 162.589 262.731 164.592C262.687 166.757 262.258 169.042 260.877 170.627C259.497 172.212 256.948 172.764 255.426 171.336C254.63 170.59 254.246 169.475 253.903 168.406C252.25 163.25 250.873 157.997 249.78 152.674C249.524 153.889 248.526 155.455 247.572 154.739C247.358 154.547 247.185 154.308 247.064 154.039C245.285 150.816 241.991 148.884 238.663 147.725C235.335 146.566 231.833 146.025 228.542 144.752C226.698 144.038 224.936 143.1 223.292 141.956C222.873 142.614 222.628 143.382 222.584 144.176C222.539 144.971 222.697 145.764 223.04 146.471C223.77 147.853 225.422 148.652 226.836 148.169C227.567 147.92 228.184 147.377 228.909 147.11C229.634 146.842 230.607 146.973 230.924 147.72C231.228 148.435 230.769 149.299 230.997 150.046C231.343 151.182 232.947 151.27 233.508 152.304C233.925 153.074 233.582 154.096 232.986 154.717C232.39 155.338 231.595 155.678 230.868 156.111C228.508 157.513 226.83 159.908 224.768 161.771C222.706 163.633 219.796 164.993 217.338 163.799C217.924 160.628 214.39 158.299 213.74 155.143C213.526 154.104 213.637 153 213.332 151.988C212.889 150.522 211.673 149.514 210.674 148.403C209.464 147.041 208.52 145.433 207.9 143.675C207.28 141.917 206.996 140.044 207.064 138.167C207.118 136.862 207.342 135.536 207.064 134.265C206.786 132.993 205.801 131.763 204.581 131.82C201.793 131.952 198.281 132.173 196.819 129.633C196.297 128.727 196.07 127.399 196.824 126.704C197.357 126.215 198.143 126.261 198.842 126.334L205.123 126.995C206.592 127.149 208.18 127.277 209.44 126.456C210.701 125.635 211.247 123.456 210.08 122.49C209.227 121.784 207.699 121.823 207.451 120.701C207.245 119.766 208.212 118.706 207.69 117.925C207.315 117.365 206.472 117.52 205.962 117.94C205.451 118.36 205.081 118.974 204.51 119.292C203.507 119.849 202.31 119.319 201.232 118.958C200.153 118.597 198.708 118.567 198.185 119.637C197.6 120.834 198.704 122.403 198.123 123.603C197.356 125.189 194.756 124.286 193.679 125.65C192.442 127.216 194.52 129.55 194.103 131.55C193.571 131.832 192.979 131.962 192.385 131.926C191.792 131.89 191.218 131.691 190.718 131.347C190.227 130.99 189.835 130.497 189.585 129.92C189.335 129.344 189.235 128.706 189.297 128.075C189.4 127.175 189.839 126.256 189.545 125.406C189.307 124.719 188.662 124.31 188.062 123.955L181.958 120.35C181.391 121.474 182.108 122.867 183.004 123.711C183.9 124.555 185.022 125.19 185.611 126.301C185.983 127.07 186.066 127.963 185.844 128.796C185.621 129.629 185.11 130.34 184.414 130.784C184.326 130.848 184.227 130.891 184.123 130.911C184.018 130.93 183.911 130.925 183.809 130.896C183.711 130.835 183.626 130.754 183.559 130.657C183.491 130.56 183.443 130.45 183.416 130.332C182.339 127.387 180.722 124.482 178.137 122.943C175.552 121.404 171.838 121.721 170.143 124.313C169.74 124.929 169.47 125.631 169.119 126.282C167.256 129.74 163.261 131.378 159.528 131.271C159.163 131.292 158.8 131.201 158.482 131.008C157.879 130.563 157.906 129.618 157.998 128.84L158.39 125.541C158.469 124.879 158.583 124.147 159.073 123.733C159.765 123.15 160.762 123.518 161.643 123.504C162.31 123.471 162.951 123.219 163.48 122.783C164.009 122.347 164.399 121.748 164.598 121.066C164.776 120.378 164.775 119.651 164.595 118.964C164.415 118.276 164.063 117.654 163.577 117.165C163.173 116.76 162.631 116.251 162.845 115.705C162.93 115.554 163.045 115.424 163.181 115.326C163.318 115.227 163.474 115.162 163.637 115.135C165.218 114.644 166.89 114.515 168.445 113.936C170 113.356 171.509 112.171 171.877 110.455C171.99 109.929 172.041 109.292 172.483 109.032C172.705 108.931 172.943 108.879 173.184 108.879C174.027 108.75 174.795 108.289 175.336 107.586C175.877 106.883 176.153 105.989 176.108 105.08C176.853 104.523 177.898 104.933 178.619 105.525C179.34 106.117 179.976 106.899 180.854 107.155C182.489 107.63 184.069 106.083 185.764 106.076C186.477 106.073 187.214 106.342 187.885 106.084C188.565 105.822 188.97 105.099 189.492 104.564C190.014 104.03 190.929 103.704 191.411 104.28L191.001 101.032C191.827 101.255 192.688 101.287 193.526 101.125C194.365 100.963 195.161 100.611 195.862 100.093L190.56 98.1783C190.376 98.1291 190.205 98.0317 190.065 97.895C189.679 97.4514 190.062 96.7601 190.375 96.2559C191.125 95.0495 191.251 93.0624 190.018 92.4618C189.177 92.0519 188.211 92.544 187.403 93.0254L183.534 95.3314C183.411 96.1176 184.31 96.5631 184.867 97.0926C185.205 97.413 185.443 97.8349 185.552 98.3029C185.661 98.7709 185.634 99.2632 185.477 99.715C185.319 100.167 185.037 100.557 184.668 100.834C184.299 101.112 183.86 101.263 183.409 101.269C183.664 101.623 183.841 102.034 183.927 102.471C184.013 102.908 184.006 103.361 183.907 103.795L181.303 103.995C181.011 104.057 180.708 103.994 180.459 103.818C180.181 103.554 180.218 103.091 180.154 102.699C179.998 101.753 179.131 101.09 178.247 100.92C177.362 100.75 176.457 100.967 175.581 101.183C175.209 101.326 174.801 101.316 174.435 101.154C174.226 101.009 174.067 100.794 173.982 100.543C173.598 99.5476 173.957 98.3777 174.574 97.5265C175.191 96.6754 176.035 96.0532 176.793 95.3446C178.607 93.6438 179.939 91.4349 180.64 88.9674C182.073 88.3256 183.557 87.4535 184.99 86.8117C187.199 85.616 189.677 85.1028 192.144 85.33L196.998 85.4291C198.435 85.4584 199.91 85.496 201.239 86.0815C202.568 86.6671 203.735 87.9336 203.827 89.4666C203.855 89.6402 203.841 89.8184 203.786 89.9846C203.732 90.1508 203.639 90.2994 203.516 90.4166C203.328 90.5261 203.116 90.5773 202.902 90.5645C201.562 90.6148 200.991 90.9717 199.651 91.022Z" fill="#0A1034"/>
<path d="M160.966 107.281C161.156 107.089 161.292 106.845 161.36 106.576C161.429 106.306 161.426 106.022 161.353 105.754C160.892 105.564 160.39 105.515 159.904 105.613C159.418 105.711 158.967 105.952 158.602 106.309C158.315 106.62 158.067 106.97 157.866 107.351C157.228 108.463 156.664 109.791 157.033 111.034C157.063 111.17 157.119 111.298 157.196 111.41C157.272 111.523 157.37 111.618 157.481 111.689C157.647 111.761 157.826 111.79 158.004 111.777C158.706 111.776 159.408 111.73 160.106 111.639C160.534 111.583 161.031 111.453 161.197 111.027C161.414 110.468 160.888 109.834 161.041 109.25C161.142 108.989 161.295 108.755 161.49 108.564C161.586 108.468 161.66 108.349 161.706 108.216C161.752 108.084 161.769 107.942 161.754 107.802C161.692 107.528 161.3 107.373 161.159 107.611" fill="#0A1034"/>
<path d="M164.609 102.232C163.985 102.079 163.342 102.036 162.704 102.104C162.564 102.1 162.424 102.134 162.299 102.203C162.177 102.298 162.089 102.435 162.049 102.59C161.914 103.052 161.947 103.551 162.141 103.987C162.335 104.424 162.676 104.767 163.096 104.947C163.325 105.003 163.544 105.097 163.746 105.226C164.284 105.673 163.941 106.586 164.043 107.306C164.157 108.116 164.89 108.795 164.756 109.6C164.65 110.235 164.016 110.738 164.118 111.373C164.225 112.039 165.015 112.239 165.645 112.292C166.01 112.36 166.385 112.314 166.726 112.159C167.068 111.91 167.311 111.533 167.409 111.103C167.667 110.283 167.775 109.417 167.728 108.553C167.725 108.16 167.633 107.774 167.459 107.428C167.269 107.154 167.059 106.896 166.831 106.658C165.624 105.158 166.894 102.92 164.609 102.232Z" fill="#0A1034"/>
<path opacity="0.8" d="M323.274 219.753C323.274 219.753 230.861 163.052 191.076 173.795C191.076 173.795 106.759 183.494 96.9872 204.832C96.9872 204.832 70.1845 115.303 60.4127 112.319" stroke="#E0ECF8" stroke-width="2" stroke-miterlimit="10"/>
<path opacity="0.8" d="M96.9872 204.832C112.483 160.665 252.08 111.722 252.08 111.722C232.257 117.094 191.076 173.795 191.076 173.795C191.076 173.795 103.967 106.052 60.4127 112.319C60.4127 112.319 252.219 119.034 323.274 219.753" stroke="#E0ECF8" stroke-width="2" stroke-miterlimit="10"/>
<path d="M60.4127 116.646C62.6486 116.646 64.4611 114.709 64.4611 112.319C64.4611 109.929 62.6486 107.992 60.4127 107.992C58.1769 107.992 56.3644 109.929 56.3644 112.319C56.3644 114.709 58.1769 116.646 60.4127 116.646Z" fill="white"/>
<path d="M96.9872 209.159C99.223 209.159 101.036 207.222 101.036 204.832C101.036 202.442 99.223 200.505 96.9872 200.505C94.7514 200.505 92.9389 202.442 92.9389 204.832C92.9389 207.222 94.7514 209.159 96.9872 209.159Z" fill="white"/>
<path d="M252.08 116.049C254.316 116.049 256.128 114.112 256.128 111.722C256.128 109.332 254.316 107.395 252.08 107.395C249.844 107.395 248.031 109.332 248.031 111.722C248.031 114.112 249.844 116.049 252.08 116.049Z" fill="white"/>
<path d="M323.274 224.081C325.51 224.081 327.323 222.143 327.323 219.753C327.323 217.364 325.51 215.426 323.274 215.426C321.039 215.426 319.226 217.364 319.226 219.753C319.226 222.143 321.039 224.081 323.274 224.081Z" fill="white"/>
<path d="M191.076 178.123C193.312 178.123 195.124 176.185 195.124 173.795C195.124 171.406 193.312 169.468 191.076 169.468C188.84 169.468 187.027 171.406 187.027 173.795C187.027 176.185 188.84 178.123 191.076 178.123Z" fill="white"/>
<defs>
<linearGradient id="paint0_linear" x1="-12" y1="-11.8172" x2="375.942" y2="290.086" gradientUnits="userSpaceOnUse">
<stop stop-color="#A6ADF5"/>
<stop offset="1" stop-color="#F2F2F2" stop-opacity="0"/>
</linearGradient>
</defs>
</svg>
